<?xml version="1.0" encoding="UTF-8"?><svg id="b" xmlns="http://www.w3.org/2000/svg" viewBox="0 0 50 50"><path d="M24.999,36.051c9.578,0,16.817-7.056,16.817-16.358,0-3.623-1.109-6.897-3.017-9.554.929-.56,2.268-.77,3.019-.795V-.523c-2.834.079-8.476,2.33-10.629,4.942-1.903-.692-3.979-1.083-6.191-1.083-9.578,0-16.816,7.056-16.816,16.358,0,4.18,1.47,7.899,3.949,10.735-2.338,1.665-3.869,4.617-3.948,7.669-.133,5.276,3.662,9.42,9.809,9.578l9.867.237c2.532.053,4.356.842,5.28,2.61l8.652-4.748c-2.505-5.303-6.12-6.833-11.844-7.096l-9.866-.238c-2.334.026-3.518-1.993-2.28-3.878,2.163.95,4.588,1.488,7.197,1.488ZM24.999,12.643c3.954,0,6.967,3.016,6.967,7.05s-3.013,7.05-6.967,7.05-6.967-3.016-6.967-7.05,3.015-7.05,6.967-7.05Z" style="fill:#442180;"/></svg>