<?xml version="1.0" encoding="UTF-8"?><svg id="b" xmlns="http://www.w3.org/2000/svg" viewBox="0 0 225 50"><path d="M86.375,34.788c3.402,0,6.37-1.375,8.324-3.583l-3.547-3.076c-.869,1.086-2.533,2.063-4.632,2.063-2.316,0-4.09-1.267-4.741-3.33h13.752c.072-.47.109-1.158.109-1.665,0-5.61-4.162-9.735-9.699-9.735-5.61,0-9.844,4.126-9.844,9.554,0,5.573,4.415,9.772,10.278,9.772ZM85.872,20.989c1.673,0,3.011,1.064,3.497,2.798h-6.964c.456-1.703,1.794-2.798,3.467-2.798Z" style="fill:#fff;"/><path d="M9.787,34.788c5.666,0,9.947-4.173,9.947-9.675,0-2.143-.656-4.08-1.784-5.651.549-.331,1.342-.455,1.786-.47v-5.836c-1.676.047-5.013,1.378-6.287,2.923-1.125-.41-2.354-.641-3.662-.641C4.121,15.437-.16,19.61-.16,25.112c0,2.472.869,4.672,2.336,6.35-1.383.985-2.289,2.731-2.335,4.536-.078,3.121,2.166,5.572,5.802,5.666l5.836.14c1.498.031,2.577.498,3.123,1.544l5.118-2.808c-1.482-3.137-3.62-4.042-7.006-4.197l-5.835-.141c-1.381.016-2.081-1.179-1.349-2.294,1.279.562,2.714.88,4.257.88ZM9.787,20.942c2.339,0,4.121,1.784,4.121,4.17s-1.782,4.17-4.121,4.17-4.121-1.784-4.121-4.17,1.784-4.17,4.121-4.17Z" style="fill:#fff;"/><path d="M191.39,34.788c5.666,0,9.947-4.173,9.947-9.675,0-2.143-.656-4.08-1.784-5.651.549-.331,1.342-.455,1.786-.47v-5.836c-1.676.047-5.013,1.378-6.287,2.923-1.125-.41-2.354-.641-3.662-.641-5.666,0-9.947,4.173-9.947,9.675,0,2.472.869,4.672,2.336,6.35-1.383.985-2.289,2.731-2.335,4.536-.078,3.121,2.166,5.572,5.802,5.666l5.836.14c1.498.031,2.577.498,3.123,1.544l5.118-2.808c-1.482-3.137-3.62-4.042-7.006-4.197l-5.835-.141c-1.381.016-2.081-1.179-1.349-2.294,1.279.562,2.714.88,4.257.88ZM191.39,20.942c2.339,0,4.121,1.784,4.121,4.17s-1.782,4.17-4.121,4.17-4.121-1.784-4.121-4.17,1.784-4.17,4.121-4.17Z" style="fill:#fff;"/><path d="M146.204,34.788c2.334,0,4.26-.815,5.742-2.334v1.889h5.409V15.89h-6.161v10.307c0,1.671-1.355,3.026-3.026,3.026h0c-1.671,0-3.026-1.355-3.026-3.026v-10.307h-6.161v11.711c0,4.334,2.89,7.187,7.224,7.187Z" style="fill:#fff;"/><path d="M171.767,15.446c-2.334,0-4.26.815-5.742,2.334v-1.889h-5.409v18.454h6.161v-10.307c0-1.671,1.355-3.026,3.026-3.026h0c1.671,0,3.026,1.355,3.026,3.026v10.307h6.161v-11.711c0-4.334-2.89-7.187-7.224-7.187Z" style="fill:#fff;"/><rect x="109.358" y="11.553" width="5.437" height="22.79" style="fill:#fff;"/><path d="M116.946,25.112c0-5.502,4.282-9.676,9.947-9.676s9.947,4.173,9.947,9.676-4.282,9.676-9.947,9.676-9.947-4.173-9.947-9.676ZM131.014,25.112c0-2.386-1.782-4.17-4.121-4.17s-4.121,1.784-4.121,4.17,1.784,4.17,4.121,4.17,4.121-1.784,4.121-4.17Z" style="fill:#fff;"/><path d="M67.299,15.437c-2.568,0-4.666.977-6.149,2.858-1.157-1.808-3.147-2.858-5.643-2.858-2.134,0-3.906.76-5.245,2.206l-.004-1.754h-5.426v18.454h5.406v-10.375c0-1.671,1.723-3.026,3.394-3.026s3.026,1.355,3.026,3.026v10.375h5.307v-10.373c0-1.672,1.723-3.026,3.394-3.026s3.026,1.355,3.026,3.026v10.373h5.563v-11.942c0-4.123-2.488-6.964-6.648-6.964Z" style="fill:#fff;"/><path d="M41.573,15.887v18.444h-5.429v-1.932c-1.393,1.428-3.271,2.374-5.485,2.374-5.001,0-8.804-4.231-8.804-9.662s3.796-9.66,8.798-9.66c2.214,0,4.099.944,5.492,2.373v-1.936h5.429ZM35.815,25.114c0-2.382-1.754-4.167-4.136-4.167-2.348,0-4.101,1.785-4.101,4.167s1.754,4.168,4.101,4.168c2.382,0,4.136-1.787,4.136-4.168Z" style="fill:#fff;"/><path d="M213.896,34.788c3.402,0,6.37-1.375,8.324-3.583l-3.547-3.076c-.869,1.086-2.533,2.063-4.632,2.063-2.316,0-4.09-1.267-4.741-3.33h13.752c.072-.47.109-1.158.109-1.665,0-5.61-4.162-9.735-9.699-9.735-5.61,0-9.844,4.126-9.844,9.554,0,5.573,4.415,9.772,10.278,9.772ZM213.393,20.989c1.673,0,3.011,1.064,3.497,2.798h-6.964c.456-1.703,1.794-2.798,3.467-2.798Z" style="fill:#fff;"/></svg>