<?xml version="1.0" encoding="UTF-8"?><svg id="b" xmlns="http://www.w3.org/2000/svg" viewBox="0 0 225 50"><path d="M80.791,18.44c2.877,0,5.387-1.163,7.039-3.03l-2.999-2.602c-.734.918-2.142,1.745-3.917,1.745-1.959,0-3.458-1.071-4.009-2.816h11.63c.061-.398.092-.979.092-1.408,0-4.744-3.519-8.233-8.202-8.233-4.744,0-8.324,3.489-8.324,8.08,0,4.713,3.734,8.263,8.692,8.263M80.365,6.771c1.414,0,2.546.9,2.957,2.366h-5.889c.386-1.44,1.517-2.366,2.932-2.366"/><path d="M16.024,18.44c4.791,0,8.412-3.529,8.412-8.182,0-1.812-.555-3.45-1.509-4.779.465-.28,1.135-.385,1.51-.398V.146c-1.417.04-4.24,1.166-5.317,2.472-.952-.346-1.99-.542-3.097-.542-4.791,0-8.411,3.529-8.411,8.182,0,2.091.735,3.951,1.975,5.37-1.169.833-1.936,2.31-1.975,3.836-.066,2.639,1.832,4.712,4.907,4.791l4.935.119c1.267.026,2.179.421,2.641,1.305l4.328-2.375c-1.253-2.653-3.061-3.418-5.924-3.549l-4.935-.119c-1.168.013-1.76-.997-1.14-1.94,1.082.475,2.295.744,3.6.744M16.024,6.731c1.978,0,3.485,1.509,3.485,3.527s-1.507,3.527-3.485,3.527-3.485-1.509-3.485-3.527,1.508-3.527,3.485-3.527"/><path d="M64.659,2.076c-2.172,0-3.946.826-5.2,2.416-.979-1.529-2.661-2.416-4.772-2.416-1.805,0-3.303.642-4.435,1.866l-.003-1.483h-4.588v15.605h4.571v-8.774c0-1.413,1.457-2.559,2.87-2.559s2.559,1.145,2.559,2.559v8.774h4.488v-8.771c0-1.414,1.457-2.559,2.87-2.559s2.559,1.146,2.559,2.559v8.771h4.705V7.965c0-3.487-2.104-5.889-5.622-5.889"/><path d="M42.905,2.457v15.597h-4.591v-1.634c-1.178,1.208-2.766,2.008-4.639,2.008-4.229,0-7.445-3.578-7.445-8.171s3.21-8.169,7.44-8.169c1.872,0,3.466.798,4.644,2.006v-1.638h4.591ZM38.035,10.26c0-2.014-1.483-3.524-3.497-3.524-1.985,0-3.468,1.51-3.468,3.524s1.483,3.525,3.468,3.525c2.014,0,3.497-1.511,3.497-3.525"/><path d="M69.37,42.616c4.791,0,8.412-3.529,8.412-8.182,0-1.812-.555-3.45-1.509-4.779.465-.28,1.135-.385,1.51-.398v-4.935c-1.417.04-4.24,1.166-5.317,2.472-.952-.346-1.99-.542-3.097-.542-4.791,0-8.411,3.529-8.411,8.182,0,2.091.735,3.951,1.975,5.37-1.169.833-1.936,2.31-1.975,3.836-.066,2.639,1.832,4.712,4.906,4.791l4.935.119c1.267.026,2.179.421,2.641,1.305l4.328-2.375c-1.253-2.653-3.061-3.418-5.924-3.549l-4.935-.119c-1.168.013-1.76-.997-1.14-1.94,1.082.475,2.295.744,3.6.744M69.37,30.907c1.978,0,3.485,1.509,3.485,3.527s-1.507,3.527-3.485,3.527-3.485-1.509-3.485-3.527,1.508-3.527,3.485-3.527"/><path d="M31.159,42.616c1.974,0,3.603-.689,4.856-1.974v1.598h4.574v-15.605h-5.21v8.716c0,1.413-1.146,2.559-2.559,2.559s-2.559-1.146-2.559-2.559v-8.716h-5.21v9.903c0,3.665,2.444,6.078,6.109,6.078"/><path d="M52.776,26.259c-1.974,0-3.603.689-4.856,1.974v-1.598h-4.574v15.605h5.21v-8.716c0-1.413,1.146-2.559,2.559-2.559s2.559,1.146,2.559,2.559v8.716h5.21v-9.903c0-3.665-2.444-6.078-6.109-6.078"/><rect y="22.968" width="4.598" height="19.272"/><path d="M6.417,34.433c0-4.653,3.621-8.182,8.412-8.182s8.412,3.529,8.412,8.182-3.621,8.182-8.412,8.182-8.412-3.529-8.412-8.182M18.314,34.433c0-2.018-1.507-3.527-3.485-3.527s-3.485,1.509-3.485,3.527,1.509,3.527,3.485,3.527,3.485-1.509,3.485-3.527"/><path d="M88.403,42.616c2.877,0,5.387-1.163,7.039-3.03l-2.999-2.602c-.734.918-2.142,1.745-3.917,1.745-1.959,0-3.458-1.071-4.009-2.816h11.63c.061-.398.092-.979.092-1.408,0-4.744-3.519-8.233-8.202-8.233-4.744,0-8.324,3.489-8.324,8.08,0,4.713,3.734,8.263,8.692,8.263M87.977,30.947c1.414,0,2.546.9,2.957,2.366h-5.889c.386-1.44,1.517-2.366,2.932-2.366"/></svg>