<?xml version="1.0" encoding="UTF-8"?><svg id="b" xmlns="http://www.w3.org/2000/svg" viewBox="0 0 225 50"><path d="M87.248,32.375c3.419,0,6.402-1.382,8.366-3.601l-3.565-3.092c-.873,1.091-2.546,2.073-4.656,2.073-2.328,0-4.11-1.273-4.765-3.347h13.822c.073-.473.109-1.164.109-1.673,0-5.638-4.183-9.785-9.748-9.785-5.638,0-9.894,4.147-9.894,9.603,0,5.602,4.438,9.821,10.33,9.821ZM86.741,18.506c1.681,0,3.026,1.07,3.515,2.812h-7c.459-1.712,1.803-2.812,3.485-2.812Z" style="fill:#442180;"/><path d="M10.269,32.375c5.694,0,9.998-4.195,9.998-9.725,0-2.154-.659-4.1-1.793-5.68.552-.333,1.349-.458,1.795-.473v-5.866c-1.685.047-5.039,1.385-6.319,2.938-1.131-.412-2.365-.644-3.68-.644C4.575,12.925.272,17.12.272,22.65c0,2.485.874,4.696,2.348,6.382-1.39.99-2.3,2.745-2.347,4.559-.079,3.137,2.177,5.6,5.832,5.694l5.866.141c1.506.031,2.59.501,3.139,1.551l5.144-2.823c-1.489-3.153-3.638-4.062-7.041-4.219l-5.865-.142c-1.388.016-2.091-1.185-1.355-2.305,1.286.565,2.728.885,4.278.885ZM10.269,18.458c2.351,0,4.142,1.793,4.142,4.191s-1.791,4.191-4.142,4.191-4.142-1.793-4.142-4.191,1.793-4.191,4.142-4.191Z" style="fill:#442180;"/><path d="M192.796,32.375c5.694,0,9.998-4.195,9.998-9.725,0-2.154-.659-4.1-1.793-5.68.552-.333,1.349-.458,1.795-.473v-5.866c-1.685.047-5.039,1.385-6.319,2.938-1.131-.412-2.365-.644-3.68-.644-5.694,0-9.997,4.195-9.997,9.725,0,2.485.874,4.696,2.348,6.382-1.39.99-2.3,2.745-2.347,4.559-.079,3.137,2.177,5.6,5.832,5.694l5.866.141c1.506.031,2.59.501,3.139,1.551l5.144-2.823c-1.489-3.153-3.638-4.062-7.041-4.219l-5.865-.142c-1.388.016-2.091-1.185-1.355-2.305,1.286.565,2.728.885,4.278.885ZM192.796,18.458c2.351,0,4.142,1.793,4.142,4.191s-1.791,4.191-4.142,4.191-4.142-1.793-4.142-4.191,1.793-4.191,4.142-4.191Z" style="fill:#442180;"/><path d="M147.381,32.375c2.346,0,4.282-.819,5.771-2.346v1.899h5.436V13.38h-6.193v10.359c0,1.68-1.362,3.041-3.041,3.041h0c-1.68,0-3.041-1.362-3.041-3.041v-10.359h-6.193v11.771c0,4.356,2.904,7.223,7.261,7.223Z" style="fill:#442180;"/><path d="M173.073,12.934c-2.346,0-4.282.819-5.771,2.346v-1.899h-5.436v18.548h6.193v-10.359c0-1.68,1.362-3.041,3.041-3.041h0c1.68,0,3.041,1.362,3.041,3.041v10.359h6.193v-11.771c0-4.356-2.904-7.223-7.261-7.223Z" style="fill:#442180;"/><rect x="110.347" y="9.022" width="5.465" height="22.906" style="fill:#442180;"/><path d="M117.974,22.65c0-5.53,4.303-9.725,9.998-9.725s9.998,4.195,9.998,9.725-4.303,9.725-9.998,9.725-9.998-4.195-9.998-9.725ZM132.113,22.65c0-2.399-1.791-4.192-4.142-4.192s-4.142,1.793-4.142,4.192,1.793,4.192,4.142,4.192,4.142-1.793,4.142-4.192Z" style="fill:#442180;"/><path d="M68.074,12.926c-2.581,0-4.69.982-6.181,2.872-1.163-1.818-3.163-2.872-5.671-2.872-2.145,0-3.926.763-5.272,2.218l-.004-1.763h-5.453v18.548h5.433v-10.428c0-1.68,1.731-3.041,3.411-3.041s3.041,1.362,3.041,3.041v10.428h5.334v-10.425c0-1.68,1.731-3.042,3.411-3.042s3.041,1.362,3.041,3.042v10.425h5.592v-12.003c0-4.144-2.501-6.999-6.681-6.999Z" style="fill:#442180;"/><path d="M42.217,13.378v18.538h-5.456v-1.942c-1.4,1.436-3.288,2.386-5.513,2.386-5.027,0-8.849-4.253-8.849-9.711s3.816-9.709,8.843-9.709c2.225,0,4.12.949,5.52,2.385v-1.946h5.456ZM36.43,22.652c0-2.394-1.763-4.188-4.157-4.188-2.36,0-4.122,1.794-4.122,4.188s1.763,4.19,4.122,4.19c2.394,0,4.157-1.796,4.157-4.19Z" style="fill:#442180;"/><path d="M215.418,32.375c3.419,0,6.402-1.382,8.366-3.601l-3.565-3.092c-.873,1.091-2.546,2.073-4.656,2.073-2.328,0-4.11-1.273-4.765-3.347h13.822c.073-.473.109-1.164.109-1.673,0-5.638-4.183-9.785-9.748-9.785-5.638,0-9.894,4.147-9.894,9.603,0,5.602,4.438,9.821,10.33,9.821ZM214.911,18.506c1.681,0,3.026,1.07,3.515,2.812h-7c.459-1.712,1.803-2.812,3.485-2.812Z" style="fill:#442180;"/></svg>