<?xml version="1.0" encoding="UTF-8"?><svg id="b" xmlns="http://www.w3.org/2000/svg" viewBox="0 0 225 50"><path d="M87.187,32.392c3.427,0,6.417-1.386,8.386-3.61l-3.573-3.099c-.875,1.094-2.552,2.078-4.667,2.078-2.334,0-4.12-1.276-4.777-3.355h13.856c.073-.474.109-1.167.109-1.677,0-5.652-4.193-9.808-9.772-9.808-5.652,0-9.918,4.157-9.918,9.626,0,5.615,4.448,9.845,10.355,9.845ZM86.679,18.49c1.685,0,3.033,1.072,3.523,2.819h-7.016c.46-1.716,1.808-2.819,3.493-2.819Z"/><path d="M10.023,32.392c5.708,0,10.022-4.205,10.022-9.748,0-2.159-.661-4.11-1.798-5.694.553-.334,1.352-.459,1.799-.474v-5.88c-1.689.047-5.051,1.389-6.334,2.945-1.134-.413-2.371-.646-3.689-.646C4.315,12.896.001,17.101.001,22.644.001,25.135.877,27.351,2.355,29.042.962,30.034.049,31.793.002,33.612c-.079,3.144,2.183,5.614,5.846,5.708l5.88.141c1.509.031,2.596.502,3.146,1.555l5.156-2.829c-1.493-3.16-3.647-4.072-7.058-4.229l-5.879-.142c-1.391.016-2.096-1.188-1.359-2.311,1.289.566,2.734.887,4.289.887ZM10.023,18.443c2.357,0,4.152,1.797,4.152,4.202s-1.795,4.202-4.152,4.202-4.152-1.797-4.152-4.202,1.797-4.202,4.152-4.202Z"/><path d="M192.99,32.392c5.708,0,10.022-4.205,10.022-9.748,0-2.159-.661-4.11-1.798-5.694.553-.334,1.352-.459,1.799-.474v-5.88c-1.689.047-5.051,1.389-6.334,2.945-1.134-.413-2.371-.646-3.689-.646-5.708,0-10.021,4.205-10.021,9.748,0,2.491.876,4.707,2.354,6.397-1.393.992-2.306,2.752-2.353,4.57-.079,3.144,2.183,5.614,5.846,5.708l5.88.141c1.509.031,2.596.502,3.146,1.555l5.156-2.829c-1.493-3.16-3.647-4.072-7.058-4.229l-5.879-.142c-1.391.016-2.096-1.188-1.359-2.311,1.289.566,2.734.887,4.289.887ZM192.99,18.443c2.357,0,4.152,1.797,4.152,4.202s-1.795,4.202-4.152,4.202-4.152-1.797-4.152-4.202,1.797-4.202,4.152-4.202Z"/><path d="M147.465,32.392c2.351,0,4.292-.821,5.785-2.351v1.904h5.449V13.352h-6.208v10.384c0,1.684-1.365,3.049-3.049,3.049h0c-1.684,0-3.049-1.365-3.049-3.049v-10.384h-6.208v11.799c0,4.367,2.911,7.241,7.278,7.241Z"/><path d="M173.219,12.905c-2.351,0-4.292.821-5.785,2.351v-1.904h-5.449v18.592h6.208v-10.384c0-1.684,1.365-3.049,3.049-3.049h0c1.684,0,3.049,1.365,3.049,3.049v10.384h6.208v-11.799c0-4.367-2.911-7.241-7.278-7.241Z"/><rect x="110.342" y="8.983" width="5.478" height="22.961"/><path d="M117.987,22.644c0-5.543,4.314-9.748,10.022-9.748s10.022,4.205,10.022,9.748-4.314,9.748-10.022,9.748-10.022-4.205-10.022-9.748ZM132.161,22.644c0-2.404-1.795-4.202-4.152-4.202s-4.152,1.797-4.152,4.202,1.797,4.202,4.152,4.202,4.152-1.797,4.152-4.202Z"/><path d="M67.967,12.896c-2.588,0-4.701.984-6.196,2.879-1.166-1.822-3.17-2.879-5.685-2.879-2.15,0-3.936.765-5.284,2.223l-.004-1.767h-5.466v18.592h5.446v-10.453c0-1.684,1.736-3.049,3.419-3.049s3.048,1.365,3.048,3.049v10.453h5.347v-10.45c0-1.684,1.736-3.049,3.419-3.049s3.048,1.365,3.048,3.049v10.45h5.605v-12.032c0-4.154-2.507-7.016-6.698-7.016Z"/><path d="M42.048,13.35v18.582h-5.469v-1.946c-1.403,1.439-3.296,2.392-5.527,2.392-5.039,0-8.87-4.263-8.87-9.734s3.825-9.733,8.864-9.733c2.231,0,4.13.951,5.533,2.39v-1.951h5.469ZM36.247,22.646c0-2.4-1.767-4.198-4.167-4.198-2.365,0-4.132,1.799-4.132,4.198s1.767,4.2,4.132,4.2c2.4,0,4.167-1.8,4.167-4.2Z"/><path d="M215.666,32.392c3.427,0,6.417-1.386,8.386-3.61l-3.573-3.099c-.875,1.094-2.552,2.078-4.667,2.078-2.334,0-4.12-1.276-4.777-3.355h13.856c.073-.474.109-1.167.109-1.677,0-5.652-4.193-9.808-9.772-9.808-5.652,0-9.918,4.157-9.918,9.626,0,5.615,4.448,9.845,10.355,9.845ZM215.158,18.49c1.685,0,3.033,1.072,3.523,2.819h-7.016c.46-1.716,1.808-2.819,3.493-2.819Z"/></svg>