<?xml version="1.0" encoding="UTF-8"?><svg id="b" xmlns="http://www.w3.org/2000/svg" viewBox="0 0 165 37"><path d="M63.975,23.91c2.508,0,4.696-1.014,6.137-2.642l-2.615-2.268c-.64.801-1.868,1.521-3.416,1.521-1.708,0-3.015-.934-3.496-2.455h10.14c.053-.347.08-.854.08-1.227,0-4.136-3.069-7.178-7.151-7.178-4.136,0-7.258,3.042-7.258,7.045,0,4.109,3.255,7.205,7.578,7.205ZM63.604,13.736c1.233,0,2.22.785,2.579,2.063h-5.135c.336-1.256,1.323-2.063,2.556-2.063Z" style="fill:#442180;"/><path d="M7.506,23.91c4.177,0,7.334-3.077,7.334-7.134,0-1.58-.484-3.008-1.316-4.167.405-.244.989-.336,1.317-.347v-4.303c-1.236.035-3.696,1.016-4.636,2.155-.83-.302-1.735-.472-2.7-.472C3.328,9.642.172,12.719.172,16.776c0,1.823.641,3.445,1.722,4.682-1.02.726-1.688,2.014-1.722,3.345-.058,2.301,1.597,4.108,4.278,4.177l4.303.103c1.104.023,1.9.367,2.302,1.138l3.773-2.071c-1.093-2.313-2.669-2.98-5.165-3.095l-4.303-.104c-1.018.012-1.534-.869-.994-1.691.943.414,2.001.649,3.139.649ZM7.506,13.701c1.725,0,3.039,1.315,3.039,3.075s-1.314,3.075-3.039,3.075-3.039-1.315-3.039-3.075,1.315-3.075,3.039-3.075Z" style="fill:#442180;"/><path d="M141.404,23.91c4.177,0,7.334-3.077,7.334-7.134,0-1.58-.484-3.008-1.316-4.167.405-.244.989-.336,1.317-.347v-4.303c-1.236.035-3.696,1.016-4.636,2.155-.83-.302-1.735-.472-2.7-.472-4.177,0-7.334,3.077-7.334,7.134,0,1.823.641,3.445,1.722,4.682-1.02.726-1.688,2.014-1.722,3.345-.058,2.301,1.597,4.108,4.278,4.177l4.303.103c1.104.023,1.9.367,2.302,1.138l3.773-2.071c-1.093-2.313-2.669-2.98-5.165-3.095l-4.303-.104c-1.018.012-1.534-.869-.994-1.691.943.414,2.001.649,3.139.649ZM141.404,13.701c1.725,0,3.039,1.315,3.039,3.075s-1.314,3.075-3.039,3.075-3.039-1.315-3.039-3.075,1.315-3.075,3.039-3.075Z" style="fill:#442180;"/><path d="M108.088,23.91c1.721,0,3.141-.601,4.234-1.721v1.393h3.988v-13.606h-4.543v7.599c0,1.232-.999,2.231-2.231,2.231h0c-1.232,0-2.231-.999-2.231-2.231v-7.599h-4.543v8.635c0,3.196,2.13,5.299,5.326,5.299Z" style="fill:#442180;"/><path d="M126.935,9.649c-1.721,0-3.141.601-4.234,1.721v-1.393h-3.988v13.606h4.543v-7.599c0-1.232.999-2.231,2.231-2.231h0c1.232,0,2.231.999,2.231,2.231v7.599h4.543v-8.635c0-3.196-2.13-5.299-5.326-5.299Z" style="fill:#442180;"/><rect x="80.921" y="6.779" width="4.009" height="16.803" style="fill:#442180;"/><path d="M86.515,16.776c0-4.057,3.157-7.134,7.334-7.134s7.334,3.077,7.334,7.134-3.157,7.134-7.334,7.134-7.334-3.077-7.334-7.134ZM96.888,16.776c0-1.76-1.314-3.075-3.039-3.075s-3.039,1.315-3.039,3.075,1.315,3.075,3.039,3.075,3.039-1.315,3.039-3.075Z" style="fill:#442180;"/><path d="M49.91,9.642c-1.894,0-3.44.72-4.534,2.107-.853-1.333-2.32-2.107-4.16-2.107-1.573,0-2.88.56-3.867,1.627l-.003-1.293h-4v13.606h3.986v-7.65c0-1.232,1.27-2.231,2.502-2.231s2.231.999,2.231,2.231v7.65h3.913v-7.648c0-1.233,1.27-2.231,2.502-2.231s2.231.999,2.231,2.231v7.648h4.102v-8.805c0-3.04-1.835-5.134-4.901-5.134Z" style="fill:#442180;"/><path d="M30.942,9.974v13.599h-4.003v-1.424c-1.027,1.053-2.412,1.75-4.044,1.75-3.688,0-6.491-3.12-6.491-7.124s2.799-7.123,6.487-7.123c1.632,0,3.022.696,4.049,1.749v-1.428h4.003ZM26.697,16.777c0-1.756-1.293-3.072-3.049-3.072-1.731,0-3.024,1.316-3.024,3.072s1.293,3.073,3.024,3.073c1.756,0,3.049-1.317,3.049-3.073Z" style="fill:#442180;"/><path d="M157.998,23.91c2.508,0,4.696-1.014,6.137-2.642l-2.615-2.268c-.64.801-1.868,1.521-3.416,1.521-1.708,0-3.015-.934-3.496-2.455h10.14c.053-.347.08-.854.08-1.227,0-4.136-3.069-7.178-7.151-7.178-4.136,0-7.258,3.042-7.258,7.045,0,4.109,3.255,7.205,7.578,7.205ZM157.627,13.736c1.233,0,2.22.785,2.579,2.063h-5.135c.336-1.256,1.323-2.063,2.556-2.063Z" style="fill:#442180;"/></svg>