<?xml version="1.0" encoding="UTF-8"?><svg id="b" xmlns="http://www.w3.org/2000/svg" viewBox="0 0 512 512"><path d="M255.991,366.7c95.946,0,168.46-70.676,168.46-163.854,0-36.296-11.109-69.088-30.219-95.707,9.303-5.606,22.722-7.709,30.244-7.968V.336c-28.386.794-84.901,23.341-106.475,49.508-19.058-6.935-39.857-10.851-62.011-10.851-95.946,0-168.447,70.676-168.447,163.854,0,41.87,14.722,79.12,39.56,107.533-23.419,16.677-38.76,46.25-39.547,76.824-1.329,52.85,36.687,94.359,98.26,95.946l98.836,2.374c25.367.529,43.633,8.439,52.885,26.141l86.669-47.56c-25.096-53.121-61.302-68.45-118.642-71.082l-98.823-2.387c-23.38.265-35.238-19.967-22.838-38.844,21.664,9.516,45.96,14.909,72.088,14.909ZM255.991,132.223c39.612,0,69.792,30.212,69.792,70.624s-30.18,70.624-69.792,70.624-69.792-30.212-69.792-70.624,30.206-70.624,69.792-70.624Z" style="fill:#442180;"/></svg>