<?xml version="1.0" encoding="UTF-8"?><svg id="b" xmlns="http://www.w3.org/2000/svg" viewBox="0 0 256 256"><path d="M99.651,136.279c3.838,0,7.187-1.552,9.392-4.043l-4.002-3.471c-.98,1.225-2.858,2.328-5.227,2.328-2.613,0-4.614-1.429-5.349-3.757h15.517c.082-.531.123-1.307.123-1.878,0-6.329-4.696-10.984-10.944-10.984-6.329,0-11.107,4.655-11.107,10.78,0,6.288,4.982,11.025,11.597,11.025ZM99.083,120.709c1.887,0,3.397,1.201,3.946,3.157h-7.858c.515-1.922,2.024-3.157,3.912-3.157Z" style="fill:#442180;"/><path d="M13.235,136.279c6.392,0,11.224-4.709,11.224-10.917,0-2.418-.74-4.603-2.013-6.377.62-.374,1.514-.514,2.015-.531v-6.585c-1.891.053-5.657,1.555-7.094,3.299-1.27-.462-2.656-.723-4.132-.723-6.392,0-11.223,4.709-11.223,10.917,0,2.79.981,5.271,2.636,7.164-1.56,1.111-2.582,3.081-2.635,5.118-.089,3.521,2.444,6.287,6.547,6.392l6.585.158c1.69.035,2.907.562,3.524,1.742l5.774-3.169c-1.672-3.539-4.084-4.561-7.905-4.736l-6.584-.159c-1.558.018-2.348-1.33-1.522-2.588,1.443.634,3.062.993,4.803.993ZM13.235,120.656c2.639,0,4.65,2.013,4.65,4.705s-2.011,4.705-4.65,4.705-4.65-2.013-4.65-4.705,2.012-4.705,4.65-4.705Z" style="fill:#442180;"/><path d="M218.141,136.279c6.392,0,11.224-4.709,11.224-10.917,0-2.418-.74-4.603-2.013-6.377.62-.374,1.514-.514,2.015-.531v-6.585c-1.891.053-5.657,1.555-7.094,3.299-1.27-.462-2.656-.723-4.132-.723-6.392,0-11.223,4.709-11.223,10.917,0,2.79.981,5.271,2.636,7.164-1.56,1.111-2.582,3.081-2.635,5.118-.089,3.521,2.444,6.287,6.547,6.392l6.585.158c1.69.035,2.907.562,3.524,1.742l5.774-3.169c-1.672-3.539-4.084-4.561-7.905-4.736l-6.584-.159c-1.558.018-2.348-1.33-1.522-2.588,1.443.634,3.062.993,4.803.993ZM218.141,120.656c2.639,0,4.65,2.013,4.65,4.705s-2.011,4.705-4.65,4.705-4.65-2.013-4.65-4.705,2.012-4.705,4.65-4.705Z" style="fill:#442180;"/><path d="M167.157,136.279c2.633,0,4.807-.92,6.479-2.633v2.132h6.103v-20.822h-6.952v11.629c0,1.886-1.529,3.414-3.414,3.414h0c-1.886,0-3.414-1.529-3.414-3.414v-11.629h-6.952v13.214c0,4.89,3.26,8.109,8.151,8.109Z" style="fill:#442180;"/><path d="M196,114.455c-2.633,0-4.807.92-6.479,2.633v-2.132h-6.103v20.822h6.952v-11.629c0-1.886,1.529-3.414,3.414-3.414h0c1.886,0,3.414,1.529,3.414,3.414v11.629h6.952v-13.214c0-4.89-3.26-8.109-8.151-8.109Z" style="fill:#442180;"/><rect x="125.583" y="110.063" width="6.135" height="25.714" style="fill:#442180;"/><path d="M134.145,125.362c0-6.208,4.831-10.917,11.223-10.917s11.223,4.709,11.223,10.917-4.831,10.917-11.223,10.917-11.223-4.709-11.223-10.917ZM150.018,125.362c0-2.693-2.011-4.705-4.65-4.705s-4.65,2.013-4.65,4.705,2.013,4.705,4.65,4.705,4.65-2.013,4.65-4.705Z" style="fill:#442180;"/><path d="M78.127,114.445c-2.898,0-5.265,1.102-6.938,3.224-1.306-2.04-3.55-3.224-6.367-3.224-2.408,0-4.408.857-5.918,2.49l-.004-1.979h-6.122v20.822h6.099v-11.707c0-1.886,1.944-3.414,3.829-3.414s3.414,1.528,3.414,3.414v11.707h5.988v-11.704c0-1.886,1.944-3.415,3.829-3.415s3.414,1.528,3.414,3.415v11.704h6.277v-13.475c0-4.653-2.808-7.857-7.501-7.857Z" style="fill:#442180;"/><path d="M49.1,114.953v20.81h-6.125v-2.18c-1.572,1.612-3.691,2.679-6.189,2.679-5.643,0-9.934-4.774-9.934-10.902s4.283-10.9,9.927-10.9c2.498,0,4.625,1.065,6.196,2.677v-2.185h6.125ZM42.604,125.364c0-2.687-1.979-4.702-4.666-4.702-2.649,0-4.628,2.014-4.628,4.702s1.979,4.703,4.628,4.703c2.687,0,4.666-2.016,4.666-4.703Z" style="fill:#442180;"/><path d="M243.536,136.279c3.838,0,7.187-1.552,9.392-4.043l-4.002-3.471c-.98,1.225-2.858,2.328-5.227,2.328-2.613,0-4.614-1.429-5.349-3.757h15.517c.082-.531.123-1.307.123-1.878,0-6.329-4.696-10.984-10.944-10.984-6.329,0-11.107,4.655-11.107,10.78,0,6.288,4.982,11.025,11.597,11.025ZM242.967,120.709c1.887,0,3.397,1.201,3.946,3.157h-7.858c.515-1.922,2.024-3.157,3.912-3.157Z" style="fill:#442180;"/></svg>