<?xml version="1.0" encoding="UTF-8"?><svg id="b" xmlns="http://www.w3.org/2000/svg" viewBox="0 0 140 140"><path d="M54.306,74.583c2.125,0,3.979-.859,5.199-2.238l-2.215-1.922c-.543.678-1.582,1.289-2.894,1.289-1.447,0-2.554-.791-2.961-2.08h8.59c.045-.294.068-.723.068-1.04,0-3.504-2.6-6.081-6.058-6.081-3.504,0-6.149,2.577-6.149,5.968,0,3.481,2.758,6.104,6.42,6.104ZM53.992,65.964c1.045,0,1.881.665,2.185,1.748h-4.35c.285-1.064,1.121-1.748,2.166-1.748Z" style="fill:#442180;"/><path d="M6.466,74.583c3.539,0,6.214-2.607,6.214-6.044,0-1.339-.41-2.548-1.115-3.53.343-.207.838-.284,1.116-.294v-3.645c-1.047.029-3.132.861-3.927,1.826-.703-.256-1.47-.4-2.287-.4-3.539,0-6.213,2.607-6.213,6.044,0,1.544.543,2.918,1.459,3.966-.864.615-1.43,1.706-1.459,2.834-.049,1.949,1.353,3.48,3.624,3.539l3.645.088c.936.02,1.609.311,1.951.964l3.197-1.754c-.926-1.959-2.261-2.525-4.376-2.622l-3.645-.088c-.862.01-1.3-.736-.842-1.433.799.351,1.695.55,2.659.55ZM6.466,65.935c1.461,0,2.574,1.114,2.574,2.605s-1.113,2.605-2.574,2.605-2.574-1.114-2.574-2.605,1.114-2.605,2.574-2.605Z" style="fill:#442180;"/><path d="M119.902,74.583c3.539,0,6.214-2.607,6.214-6.044,0-1.339-.41-2.548-1.115-3.53.343-.207.838-.284,1.116-.294v-3.645c-1.047.029-3.132.861-3.927,1.826-.703-.256-1.47-.4-2.287-.4-3.539,0-6.213,2.607-6.213,6.044,0,1.544.543,2.918,1.459,3.966-.864.615-1.43,1.706-1.459,2.834-.049,1.949,1.353,3.48,3.624,3.539l3.645.088c.936.02,1.609.311,1.951.964l3.197-1.754c-.926-1.959-2.261-2.525-4.376-2.622l-3.645-.088c-.862.01-1.3-.736-.842-1.433.799.351,1.695.55,2.659.55ZM119.902,65.935c1.461,0,2.574,1.114,2.574,2.605s-1.113,2.605-2.574,2.605-2.574-1.114-2.574-2.605,1.114-2.605,2.574-2.605Z" style="fill:#442180;"/><path d="M91.678,74.583c1.458,0,2.661-.509,3.587-1.458v1.18h3.378v-11.527h-3.849v6.438c0,1.044-.846,1.89-1.89,1.89h0c-1.044,0-1.89-.846-1.89-1.89v-6.438h-3.849v7.315c0,2.707,1.805,4.489,4.512,4.489Z" style="fill:#442180;"/><path d="M107.645,62.501c-1.458,0-2.661.509-3.587,1.458v-1.18h-3.378v11.527h3.849v-6.438c0-1.044.846-1.89,1.89-1.89h0c1.044,0,1.89.846,1.89,1.89v6.438h3.849v-7.315c0-2.707-1.805-4.489-4.512-4.489Z" style="fill:#442180;"/><rect x="68.662" y="60.07" width="3.396" height="14.236" style="fill:#442180;"/><path d="M73.402,68.539c0-3.437,2.674-6.044,6.213-6.044s6.213,2.607,6.213,6.044-2.674,6.044-6.213,6.044-6.213-2.607-6.213-6.044ZM82.189,68.539c0-1.491-1.113-2.605-2.574-2.605s-2.574,1.114-2.574,2.605,1.114,2.605,2.574,2.605,2.574-1.114,2.574-2.605Z" style="fill:#442180;"/><path d="M42.39,62.496c-1.604,0-2.914.61-3.841,1.785-.723-1.13-1.966-1.785-3.525-1.785-1.333,0-2.44.474-3.276,1.378l-.002-1.096h-3.389v11.527h3.377v-6.481c0-1.044,1.076-1.89,2.12-1.89s1.89.846,1.89,1.89v6.481h3.315v-6.479c0-1.044,1.076-1.89,2.12-1.89s1.89.846,1.89,1.89v6.479h3.475v-7.46c0-2.576-1.554-4.35-4.152-4.35Z" style="fill:#442180;"/><path d="M26.321,62.777v11.521h-3.391v-1.207c-.87.892-2.043,1.483-3.426,1.483-3.124,0-5.499-2.643-5.499-6.035s2.371-6.034,5.495-6.034c1.383,0,2.56.59,3.43,1.482v-1.21h3.391ZM22.724,68.541c0-1.488-1.096-2.603-2.583-2.603-1.466,0-2.562,1.115-2.562,2.603s1.096,2.604,2.562,2.604c1.488,0,2.583-1.116,2.583-2.604Z" style="fill:#442180;"/><path d="M133.961,74.583c2.125,0,3.979-.859,5.199-2.238l-2.215-1.922c-.543.678-1.582,1.289-2.894,1.289-1.447,0-2.554-.791-2.961-2.08h8.59c.045-.294.068-.723.068-1.04,0-3.504-2.6-6.081-6.058-6.081-3.504,0-6.149,2.577-6.149,5.968,0,3.481,2.758,6.104,6.42,6.104ZM133.646,65.964c1.045,0,1.881.665,2.185,1.748h-4.35c.285-1.064,1.121-1.748,2.166-1.748Z" style="fill:#442180;"/></svg>