<?xml version="1.0" encoding="UTF-8"?><svg id="b" xmlns="http://www.w3.org/2000/svg" viewBox="0 0 50 50"><path d="M23.788,35.662c9.327,0,16.377-6.871,16.377-15.929,0-3.528-1.08-6.716-2.938-9.304.904-.545,2.209-.749,2.94-.775V.046c-2.76.077-8.254,2.269-10.351,4.813-1.853-.674-3.875-1.055-6.028-1.055-9.327,0-16.376,6.871-16.376,15.929,0,4.07,1.431,7.692,3.846,10.454-2.277,1.621-3.768,4.496-3.845,7.468-.129,5.138,3.567,9.173,9.552,9.327l9.608.231c2.466.051,4.242.82,5.141,2.541l8.425-4.624c-2.44-5.164-5.959-6.654-11.534-6.91l-9.607-.232c-2.273.026-3.426-1.941-2.22-3.776,2.106.925,4.468,1.449,7.008,1.449ZM23.788,12.868c3.851,0,6.785,2.937,6.785,6.866s-2.934,6.866-6.785,6.866-6.785-2.937-6.785-6.866,2.936-6.866,6.785-6.866Z" style="fill:#fff;"/></svg>