<?xml version="1.0" encoding="UTF-8"?><svg id="b" xmlns="http://www.w3.org/2000/svg" viewBox="0 0 129 129"><path d="M64.738,91.947c24.143,0,42.39-17.784,42.39-41.23,0-9.133-2.795-17.385-7.604-24.083,2.341-1.411,5.718-1.94,7.61-2.005V-.241c-7.143.2-21.364,5.873-26.792,12.458-4.795-1.745-10.029-2.731-15.604-2.731-24.143,0-42.386,17.784-42.386,41.23,0,10.536,3.705,19.909,9.955,27.058-5.893,4.196-9.753,11.638-9.951,19.331-.334,13.299,9.232,23.743,24.725,24.143l24.87.597c6.383.133,10.979,2.123,13.307,6.578l21.808-11.968c-6.315-13.367-15.425-17.224-29.854-17.886l-24.867-.601c-5.883.067-8.867-5.024-5.747-9.774,5.451,2.394,11.565,3.752,18.14,3.752ZM64.738,32.946c9.968,0,17.562,7.602,17.562,17.771s-7.594,17.771-17.562,17.771-17.562-7.602-17.562-17.771,7.601-17.771,17.562-17.771Z" style="fill:#442180;"/></svg>